<?xml version="1.0" encoding="UTF-8"?><svg xmlns="http://www.w3.org/2000/svg" xmlns:svg="http://www.w3.org/2000/svg" id="svg1" height="650" viewBox="0 0 1500 650" version="1.1" width="1500" space="preserve"><defs id="defs1"><rect width="1222.4214" x="86.790794" height="151.76976" y="37.872349" id="rect7" /></defs><g id="BG" style="display:inline"><rect y="0" style="fill:#000000;fill-opacity:0.999985;stroke-width:6.46399;stroke-linecap:round;stroke-linejoin:round" id="rect156" x="0" height="650" width="1500" /><rect id="rect1" y="205.90422" width="994.93811" height="388.19156" x="123.50378" style="display:inline;fill:#ffffff;fill-opacity:1;stroke-width:5.66929;stroke-linecap:round;stroke-linejoin:round" /><path d="m 1291.6875,227.4043 c 0,0 -48.8602,3.70736 -64.0078,24.36132 -17.8467,24.33434 -15.4844,55.72266 -15.4844,55.72266 v 0.002 l -3.5117,22.96289 c 0,0 -17.2712,12.33472 -16.9922,42.63086 0.279,30.29615 6.6388,79.67109 19.3594,95.01368 12.7206,15.34259 51.3602,53.00195 84.2051,53.00195 32.8449,0 64.3682,-29.08158 71.6211,-47.98047 7.2529,-18.89888 10.3212,-30.12775 9.4843,-38.77539 -0.8369,-8.64764 -8.709,-33.72616 -6.9746,-42.24805 1.7344,-8.52189 5.5191,-65.54695 3.627,-72.04297 -1.892,-6.49603 -1.8926,-14.5371 -1.8926,-14.53711 0,-0.16801 0.2417,-29.97845 -17.5547,-54.24414 -15.1476,-20.65396 -60.5566,-23.86718 -60.5566,-23.86718 z" id="path154" style="display:inline;fill:#ffffff;fill-opacity:1;stroke-width:5.66929;stroke-linecap:round;stroke-linejoin:round" /><text id="title" style="font-style:normal;font-variant:normal;font-weight:normal;font-stretch:normal;font-size:53.3333px;line-height:1;font-family:&apos;DejaVu Sans&apos;;-inkscape-font-specification:&apos;DejaVu Sans&apos;;word-spacing:0px;writing-mode:lr-tb;direction:ltr;white-space:pre;shape-inside:url(#rect7);display:inline;fill:#ffffff;fill-opacity:0.999985;stroke:none;stroke-width:2;stroke-linecap:round;stroke-linejoin:round;stroke-opacity:1;paint-order:normal" transform="translate(36.775261,22.126953)" space="preserve"><tspan x="86.791016" y="78.393856" id="tspan1">Button usage </tspan>(time)</text></g><g style="fill:#000000;fill-opacity:0.999986;stroke-width:0" id="buttons"><path style="fill:#000000;fill-opacity:0.999986;stroke-width:0;stroke-linecap:round;stroke-linejoin:round" d="m 869.64395,232.8634 h 34.7164 v 22.44225 h -34.7164 z" id="KEY_PAUSE" /><path style="fill:#000000;fill-opacity:0.999986;stroke-width:0;stroke-linecap:round;stroke-linejoin:round" id="KEY_SCROLLLOCK" d="m 828.22765,232.8634 h 34.7163 v 22.44225 h -34.7163 z" /><path id="KEY_SYSRQ" d="m 786.81135,232.8634 h 34.7163 v 22.44225 h -34.7163 z" style="fill:#0000FF;fill-opacity:1" /><path d="m 722.15985,232.8634 h 34.7163 v 22.44225 h -34.7163 z" style="fill:#000000;fill-opacity:0.999986;stroke-width:0;stroke-linecap:round;stroke-linejoin:round" id="KEY_F12" /><path style="fill:#000000;fill-opacity:0.999986;stroke-width:0;stroke-linecap:round;stroke-linejoin:round" d="m 680.74355,232.8634 h 34.7163 v 22.44225 h -34.7163 z" id="KEY_F11" /><path id="KEY_F10" style="fill:#000000;fill-opacity:0.999986;stroke-width:0;stroke-linecap:round;stroke-linejoin:round" d="m 639.32715,232.8634 h 34.7164 v 22.44225 h -34.7164 z" /><path style="fill:#000000;fill-opacity:0.999986;stroke-width:0;stroke-linecap:round;stroke-linejoin:round" id="KEY_F9" d="m 597.91085,232.8634 h 34.7163 v 22.44225 h -34.7163 z" /><path id="KEY_F8" style="fill:#000000;fill-opacity:0.999986;stroke-width:0;stroke-linecap:round;stroke-linejoin:round" d="m 533.25935,232.8634 h 34.7163 v 22.44225 h -34.7163 z" /><path id="KEY_F7" style="fill:#000000;fill-opacity:0.999986;stroke-width:0;stroke-linecap:round;stroke-linejoin:round" d="m 491.84305,232.8634 h 34.7163 v 22.44225 h -34.7163 z" /><path d="m 450.42671,232.8634 h 34.71634 v 22.44225 h -34.71634 z" id="KEY_F6" style="fill:#000000;fill-opacity:0.999986;stroke-width:0;stroke-linecap:round;stroke-linejoin:round" /><path style="fill:#000000;fill-opacity:0.999986;stroke-width:0;stroke-linecap:round;stroke-linejoin:round" d="m 409.01039,232.8634 h 34.71632 v 22.44225 h -34.71632 z" id="KEY_F5" /><path id="KEY_F4" style="fill:#000000;fill-opacity:0.999986;stroke-width:0;stroke-linecap:round;stroke-linejoin:round" d="m 344.35896,232.8634 h 34.71632 v 22.44225 h -34.71632 z" /><path id="KEY_F3" d="m 302.94264,232.8634 h 34.71632 v 22.44225 h -34.71632 z" style="fill:#000000;fill-opacity:0.999986;stroke-width:0;stroke-linecap:round;stroke-linejoin:round" /><path style="fill:#000000;fill-opacity:0.999986;stroke-width:0;stroke-linecap:round;stroke-linejoin:round" d="m 261.52632,232.8634 h 34.71632 v 22.44225 h -34.71632 z" id="KEY_F2" /><path style="fill:#000000;fill-opacity:0.999986;stroke-width:0;stroke-linecap:round;stroke-linejoin:round" d="m 220.11,232.8634 h 34.71632 v 22.44225 H 220.11 Z" id="KEY_F1" /><path style="fill:#0013FF;fill-opacity:1" id="KEY_ESC" d="m 155.45856,232.8634 h 34.71632 v 22.44225 h -34.71632 z" /><path d="m 1015.8477,457.57128 h 34.7163 v 34.71632 h -34.7163 z" id="KEY_KPDOT" style="fill:#000000;fill-opacity:0.999986;stroke-width:0;stroke-linecap:round;stroke-linejoin:round" /><path style="fill:#000000;fill-opacity:0.999986;stroke-width:0;stroke-linecap:round;stroke-linejoin:round" d="m 933.01515,457.57128 h 76.13195 v 34.71632 h -76.13195 z" id="KEY_KP0" /><path style="fill:#0030FF;fill-opacity:1" d="m 869.64395,457.57128 h 34.7164 v 34.71632 h -34.7164 z" id="KEY_RIGHT" /><path id="KEY_DOWN" style="fill:#0040FF;fill-opacity:1" d="m 828.22765,457.57128 h 34.7163 v 34.71632 h -34.7163 z" /><path style="fill:#004CFF;fill-opacity:1" id="KEY_LEFT" d="m 786.81135,457.57128 h 34.7163 v 34.71632 h -34.7163 z" /><path style="fill:#000000;fill-opacity:0.999986;stroke-width:0;stroke-linecap:round;stroke-linejoin:round" id="KEY_RIGHTCTRL" d="m 692.84175,457.57074 h 65.315 v 34.71632 h -65.315 z" /><path d="M 329.66309,457.57128 H 562.92185 V 492.2876 H 329.66309 Z" style="fill:#008CFF;fill-opacity:1" id="KEY_SPACE" /><path d="m 231.864,457.57128 h 42.5383 V 492.2876 H 231.864 Z" id="KEY_LEFTMETA" style="fill:#001CFF;fill-opacity:1" /><path id="KEY_LEFTCTRL" d="M 155.45856,457.57128 H 225.164 v 34.71632 h -69.70544 z" style="fill:#7AFF00;fill-opacity:1" /><path style="fill:#000000;fill-opacity:0.999986;stroke-width:0;stroke-linecap:round;stroke-linejoin:round" id="KEY_KPENTER" d="m 1057.264,416.15496 h 34.7164 v 76.132 h -34.7164 z" /><path id="KEY_KP3" style="fill:#000000;fill-opacity:0.999986;stroke-width:0;stroke-linecap:round;stroke-linejoin:round" d="m 1015.8477,416.15496 h 34.7163 v 34.71632 h -34.7163 z" /><path style="fill:#000000;fill-opacity:0.999986;stroke-width:0;stroke-linecap:round;stroke-linejoin:round" d="m 974.43145,416.15496 h 34.71625 v 34.71632 h -34.71625 z" id="KEY_KP2" /><path style="fill:#000000;fill-opacity:0.999986;stroke-width:0;stroke-linecap:round;stroke-linejoin:round" d="m 933.01515,416.15496 h 34.7163 v 34.71632 h -34.7163 z" id="KEY_KP1" /><path id="KEY_UP" d="m 828.22765,416.15496 h 34.7163 v 34.71632 h -34.7163 z" style="fill:#0076FF;fill-opacity:1" /><path d="m 663.38535,416.15496 h 94.7711 v 34.71632 h -94.7711 z" id="KEY_RIGHTSHIFT" style="fill:#00FFA6;fill-opacity:1" /><path style="fill:#0015FF;fill-opacity:1" d="m 621.96905,416.15496 h 34.7163 v 34.71632 h -34.7163 z" id="KEY_SLASH" /><path style="fill:#0013FF;fill-opacity:1" d="m 580.55275,416.15496 h 34.7163 v 34.71632 h -34.7163 z" id="KEY_DOT" /><path id="KEY_COMMA" d="m 539.13645,416.15496 h 34.7163 v 34.71632 h -34.7163 z" style="fill:#000DFF;fill-opacity:1" /><path d="m 497.72015,416.15496 h 34.7163 v 34.71632 h -34.7163 z" id="KEY_M" style="fill:#0026FF;fill-opacity:1" /><path d="m 456.30376,416.15496 h 34.71639 v 34.71632 h -34.71639 z" id="KEY_N" style="fill:#0022FF;fill-opacity:1" /><path style="fill:#000CFF;fill-opacity:1" d="m 414.88744,416.15496 h 34.71632 v 34.71632 h -34.71632 z" id="KEY_B" /><path id="KEY_V" d="m 373.47112,416.15496 h 34.71632 v 34.71632 h -34.71632 z" style="fill:#0019FF;fill-opacity:1" /><path id="KEY_C" style="fill:#0041FF;fill-opacity:1" d="m 332.0548,416.15496 h 34.71632 v 34.71632 H 332.0548 Z" /><path style="fill:#0006FF;fill-opacity:1" d="m 290.63848,416.15496 h 34.71632 v 34.71632 h -34.71632 z" id="KEY_X" /><path style="fill:#0017FF;fill-opacity:1" d="m 249.22216,416.15496 h 34.71632 v 34.71632 h -34.71632 z" id="KEY_Z" /><path d="m 207.80584,416.15496 h 34.71632 v 34.71632 h -34.71632 z" id="KEY_102ND" style="fill:#0001FF;fill-opacity:1" /><path style="fill:#00A6FF;fill-opacity:1" id="KEY_LEFTSHIFT" d="m 155.45856,416.15496 h 46.53582 v 34.71632 h -46.53582 z" /><path id="KEY_KP6" d="m 1015.8477,374.73864 h 34.7163 v 34.71632 h -34.7163 z" style="fill:#000000;fill-opacity:0.999986;stroke-width:0;stroke-linecap:round;stroke-linejoin:round" /><path d="m 974.43145,374.73864 h 34.71625 v 34.71632 h -34.71625 z" id="KEY_KP5" style="fill:#000000;fill-opacity:0.999986;stroke-width:0;stroke-linecap:round;stroke-linejoin:round" /><path style="fill:#000000;fill-opacity:0.999986;stroke-width:0;stroke-linecap:round;stroke-linejoin:round" id="KEY_KP4" d="m 933.01515,374.73864 h 34.7163 v 34.71632 h -34.7163 z" /><path id="KEY_BACKSLASH" d="m 680.74355,374.73864 h 34.7163 v 34.71632 h -34.7163 z" style="fill:#0002FF;fill-opacity:1" /><path d="m 639.32715,374.73864 h 34.7164 v 34.71632 h -34.7164 z" style="fill:#0002FF;fill-opacity:1" id="KEY_APOSTROPHE" /><path style="fill:#0001FF;fill-opacity:1" id="KEY_SEMICOLON" d="m 597.91085,374.73864 h 34.7163 v 34.71632 h -34.7163 z" /><path id="KEY_L" d="m 556.49455,374.73864 h 34.7163 v 34.71632 h -34.7163 z" style="fill:#001EFF;fill-opacity:1" /><path style="fill:#0016FF;fill-opacity:1" id="KEY_K" d="m 515.07825,374.73864 h 34.7163 v 34.71632 h -34.7163 z" /><path d="m 473.66195,374.73864 h 34.7163 v 34.71632 h -34.7163 z" id="KEY_J" style="fill:#0001FF;fill-opacity:1" /><path style="fill:#0014FF;fill-opacity:1" d="m 432.2456,374.73864 h 34.71635 v 34.71632 H 432.2456 Z" id="KEY_H" /><path d="m 390.82928,374.73864 h 34.71632 v 34.71632 h -34.71632 z" id="KEY_G" style="fill:#001BFF;fill-opacity:1" /><path id="KEY_F" d="m 349.41296,374.73864 h 34.71632 v 34.71632 h -34.71632 z" style="fill:#0013FF;fill-opacity:1" /><path id="KEY_D" d="m 307.99664,374.73864 h 34.71632 v 34.71632 h -34.71632 z" style="fill:#06FF00;fill-opacity:1" /><path d="m 266.58032,374.73864 h 34.71632 v 34.71632 h -34.71632 z" style="fill:#0073FF;fill-opacity:1" id="KEY_S" /><path style="fill:#26FF00;fill-opacity:1" d="m 225.164,374.73864 h 34.71632 v 34.71632 H 225.164 Z" id="KEY_A" /><path id="KEY_CAPSLOCK" style="fill:#00B6FF;fill-opacity:1" d="m 155.45856,374.73864 h 63.39894 v 34.71632 h -63.39894 z" /><path d="m 1057.264,333.32232 h 34.7164 v 76.132 h -34.7164 z" style="fill:#000000;fill-opacity:0.999986;stroke-width:0;stroke-linecap:round;stroke-linejoin:round" id="KEY_KPPLUS" /><path style="fill:#000000;fill-opacity:0.999986;stroke-width:0;stroke-linecap:round;stroke-linejoin:round" d="m 1015.8477,333.32232 h 34.7163 v 34.71632 h -34.7163 z" id="KEY_KP9" /><path style="fill:#000000;fill-opacity:0.999986;stroke-width:0;stroke-linecap:round;stroke-linejoin:round" id="KEY_KP8" d="m 974.43145,333.32232 h 34.71625 v 34.71632 h -34.71625 z" /><path style="fill:#000000;fill-opacity:0.999986;stroke-width:0;stroke-linecap:round;stroke-linejoin:round" d="m 933.01515,333.32232 h 34.7163 v 34.71632 h -34.7163 z" id="KEY_KP7" /><path d="m 869.64395,333.32232 h 34.7164 v 34.71632 h -34.7164 z" id="KEY_PAGEDOWN" style="fill:#0004FF;fill-opacity:1" /><path id="KEY_END" d="m 828.22765,333.32232 h 34.7163 v 34.71632 h -34.7163 z" style="fill:#0004FF;fill-opacity:1" /><path d="m 786.81135,333.32232 h 34.7163 v 34.71632 h -34.7163 z" style="fill:#0002FF;fill-opacity:1" id="KEY_DELETE" /><path id="KEY_ENTER" style="fill:#005EFF;fill-opacity:1" d="m 711.22925,333.32269 v 34.71679 h 10.9297 v 41.41602 h 36.9492 v -76.13281 h -13.1621 -23.7871 z" /><path style="fill:#0004FF;fill-opacity:1" d="m 669.81255,333.32232 h 34.7164 v 34.71632 h -34.7164 z" id="KEY_RIGHTBRACE" /><path id="KEY_LEFTBRACE" d="m 628.39625,333.32232 h 34.7163 v 34.71632 h -34.7163 z" style="fill:#0004FF;fill-opacity:1" /><path d="m 586.97995,333.32232 h 34.7163 v 34.71632 h -34.7163 z" style="fill:#0015FF;fill-opacity:1" id="KEY_P" /><path style="fill:#0035FF;fill-opacity:1" d="m 545.56365,333.32232 h 34.7163 v 34.71632 h -34.7163 z" id="KEY_O" /><path style="fill:#0035FF;fill-opacity:1" d="m 504.14735,333.32232 h 34.7163 v 34.71632 h -34.7163 z" id="KEY_I" /><path style="fill:#001DFF;fill-opacity:1" id="KEY_U" d="m 462.73096,333.32232 h 34.71639 v 34.71632 h -34.71639 z" /><path d="m 421.31464,333.32232 h 34.71632 v 34.71632 h -34.71632 z" id="KEY_Y" style="fill:#0012FF;fill-opacity:1" /><path id="KEY_T" d="m 379.89832,333.32232 h 34.71632 v 34.71632 h -34.71632 z" style="fill:#0031FF;fill-opacity:1" /><path id="KEY_R" style="fill:#0024FF;fill-opacity:1" d="m 338.482,333.32232 h 34.71632 v 34.71632 H 338.482 Z" /><path style="fill:#0048FF;fill-opacity:1" d="M 297.06568,333.32232 H 331.782 v 34.71632 h -34.71632 z" id="KEY_E" /><path style="fill:#FF0000;fill-opacity:1" d="m 255.64936,333.32232 h 34.71632 v 34.71632 h -34.71632 z" id="KEY_W" /><path id="KEY_Q" d="m 214.23304,333.32232 h 34.71632 v 34.71632 h -34.71632 z" style="fill:#0018FF;fill-opacity:1" /><path style="fill:#004FFF;fill-opacity:1" id="KEY_TAB" d="m 155.45856,333.32232 h 52.074 v 34.71632 h -52.074 z" /><path id="KEY_KPMINUS" d="m 1057.264,291.906 h 34.7164 v 34.71632 h -34.7164 z" style="fill:#000000;fill-opacity:0.999986;stroke-width:0;stroke-linecap:round;stroke-linejoin:round" /><path d="m 1015.8477,291.906 h 34.7163 v 34.71632 h -34.7163 z" id="KEY_KPASTERISK" style="fill:#000000;fill-opacity:0.999986;stroke-width:0;stroke-linecap:round;stroke-linejoin:round" /><path style="fill:#000000;fill-opacity:0.999986;stroke-width:0;stroke-linecap:round;stroke-linejoin:round" d="m 974.43145,291.906 h 34.71625 v 34.71632 h -34.71625 z" id="KEY_KPSLASH" /><path id="KEY_NUMLOCK" d="m 933.01515,291.906 h 34.7163 v 34.71632 h -34.7163 z" style="fill:#000000;fill-opacity:0.999986;stroke-width:0;stroke-linecap:round;stroke-linejoin:round" /><path d="m 869.64395,291.906 h 34.7164 v 34.71632 h -34.7164 z" id="KEY_PAGEUP" style="fill:#0002FF;fill-opacity:1" /><path d="m 828.22765,291.906 h 34.7163 v 34.71632 h -34.7163 z" id="KEY_HOME" style="fill:#0001FF;fill-opacity:1" /><path id="KEY_INSERT" d="m 786.81135,291.906 h 34.7163 v 34.71632 h -34.7163 z" style="fill:#0003FF;fill-opacity:1" /><path d="m 693.87075,291.906 h 64.2857 v 34.71632 h -64.2857 z" style="fill:#006DFF;fill-opacity:1" id="KEY_BACKSPACE" /><path style="fill:#0006FF;fill-opacity:1" d="m 652.45435,291.906 h 34.7164 v 34.71632 h -34.7164 z" id="KEY_EQUAL" /><path id="KEY_MINUS" d="m 611.03805,291.906 h 34.7163 v 34.71632 h -34.7163 z" style="fill:#0002FF;fill-opacity:1" /><path d="m 569.62175,291.906 h 34.7163 v 34.71632 h -34.7163 z" id="KEY_0" style="fill:#0006FF;fill-opacity:1" /><path d="m 528.20545,291.906 h 34.7163 v 34.71632 h -34.7163 z" style="fill:#0001FF;fill-opacity:1" id="KEY_9" /><path style="fill:#0006FF;fill-opacity:1" id="KEY_8" d="m 486.78915,291.906 h 34.7163 v 34.71632 h -34.7163 z" /><path d="m 445.3728,291.906 h 34.71635 v 34.71632 H 445.3728 Z" style="fill:#0006FF;fill-opacity:1" id="KEY_7" /><path id="KEY_6" style="fill:#0002FF;fill-opacity:1" d="m 403.95648,291.906 h 34.71632 v 34.71632 h -34.71632 z" /><path style="fill:#0002FF;fill-opacity:1" id="KEY_5" d="m 362.54016,291.906 h 34.71632 v 34.71632 h -34.71632 z" /><path style="fill:#0002FF;fill-opacity:1" d="m 321.12384,291.906 h 34.71632 v 34.71632 h -34.71632 z" id="KEY_4" /><path style="fill:#000EFF;fill-opacity:1" id="KEY_3" d="m 279.70752,291.906 h 34.71632 v 34.71632 h -34.71632 z" /><path style="fill:#0015FF;fill-opacity:1" d="m 238.2912,291.906 h 34.71632 v 34.71632 H 238.2912 Z" id="KEY_2" /><path d="m 196.87488,291.906 h 34.71632 v 34.71632 h -34.71632 z" id="KEY_1" style="fill:#0010FF;fill-opacity:1" /><path d="m 155.45856,291.906 h 34.71632 v 34.71632 h -34.71632 z" id="KEY_GRAVE" style="fill:#0000FF;fill-opacity:1" /><path d="m 281.1023,457.57128 h 42.5383 v 34.71632 h -42.5383 z" style="fill:#00FF8C;fill-opacity:1" id="KEY_LEFTALT" /><path d="m 568.94434,457.57128 h 42.5383 v 34.71632 h -42.5383 z" id="KEY_RIGHTALT" style="fill:#0028FF;fill-opacity:1" /><path style="fill:#008EFF;fill-opacity:1" id="BTN_RIGHT" d="m 1293.0097,227.40466 c 0,0 45.4088,3.2135 60.5564,23.86747 17.8467,24.33434 17.5553,54.24424 17.5553,54.24424 l -23.8674,46.15693 -0.9863,14.20213 -39.6476,11.83511 -2.1698,-60.95081 2.1698,-3.94504 -1.9725,-37.6751 c 0,0 0.6904,-3.4519 -2.0712,-6.21343 -2.9947,-2.99472 -8.7777,-1.67664 -8.7777,-1.67664 z" /><path d="m 1291.6878,227.40466 c 0,0 -48.8607,3.70663 -64.0083,24.3606 -17.8467,24.33434 -15.4842,55.72363 -15.4842,55.72363 0,0 25.5806,32.87126 29.9822,43.98716 4.4017,11.1159 3.452,17.25953 3.452,17.25953 l 39.2531,10.35572 -1.7752,-60.75356 -1.9726,-5.3258 -1.0849,-37.87235 c 0,0 -0.6904,-3.4519 2.0712,-6.21343 2.9947,-2.99472 8.7777,-1.67664 8.7777,-1.67664 z" style="fill:#FF0000;fill-opacity:1" id="BTN_LEFT" /><path id="BTN_MIDDLE" style="fill:#000000;fill-opacity:0.999986;stroke-width:0;stroke-linecap:round;stroke-linejoin:round" d="m 1284.0745,318.58696 -0.1873,-44.99053 c 0,0 3.8357,-1.81321 8.7174,-1.95269 4.8817,-0.13948 9.0661,1.39478 9.0661,1.39478 l 1.3948,45.81855 c 0,0 -6.5822,1.32504 -10.0558,1.18557 -3.4736,-0.13948 -8.9352,-1.45568 -8.9352,-1.45568 z" /><path id="KEY_KPLEFTPAREN_BG" style="fill:#ffffff;fill-opacity:0.999985;stroke:#ffffff;stroke-width:3;stroke-linecap:round;stroke-linejoin:round;stroke-opacity:1;paint-order:normal" d="m 1280.8829,297.49651 -5.2099,-5.2072 5.2071,-5.21 -2.3445,-2.3431 -7.5503,7.5545 7.5545,7.5503 z" /><path d="m 1305.2964,297.19161 5.2099,-5.2072 -5.2071,-5.21 2.3445,-2.3431 7.5503,7.5545 -7.5545,7.5503 z" id="KEY_KPRIGHTPAREN_BG" style="fill:#ffffff;fill-opacity:0.999985;stroke:#ffffff;stroke-width:3;stroke-linecap:round;stroke-linejoin:round;stroke-opacity:1;paint-order:normal" /><path style="fill:#ffffff;fill-opacity:0.999985;stroke:#ffffff;stroke-width:3;stroke-linecap:round;stroke-linejoin:round;stroke-opacity:1;paint-order:normal" id="KEY_SCROLLUP_BG" d="m 1297.4515,269.68501 -5.2072,-5.20984 -5.21,5.20704 -2.3431,-2.34446 7.5545,-7.55032 7.5503,7.55445 z" /><path id="KEY_SCROLLDOWN_BG" style="fill:#ffffff;fill-opacity:0.999985;stroke:#ffffff;stroke-width:3;stroke-linecap:round;stroke-linejoin:round;stroke-opacity:1;paint-order:normal" d="m 1299.5773,320.5564 -5.2072,5.20984 -5.21,-5.20704 -2.3431,2.34446 7.5545,7.55032 7.5503,-7.55445 z" /><path style="fill:#000000;fill-opacity:0.999986;stroke-width:0;stroke-linecap:round;stroke-linejoin:round" d="m 1305.2964,286.77993 5.2099,5.20715 -5.2071,5.20997 2.3445,2.34323 7.5503,-7.55447 -7.5544,-7.55036 z" id="KEY_KPRIGHTPAREN" /><path d="m 1280.8829,287.08217 -5.2099,5.20714 5.2071,5.20998 -2.3445,2.34322 -7.5503,-7.55446 7.5544,-7.55037 z" id="KEY_KPLEFTPAREN" style="fill:#000000;fill-opacity:0.999986;stroke-width:0;stroke-linecap:round;stroke-linejoin:round" /><path d="m 1297.4516,269.68501 -5.2072,-5.20984 -5.21,5.20704 -2.3431,-2.34446 7.5544,-7.55032 7.5503,7.55445 z" style="fill:#00DCFF;fill-opacity:1" id="KEY_SCROLLUP" /><path id="KEY_SCROLLDOWN" d="m 1299.5773,320.5564 -5.2072,5.20984 -5.21,-5.20704 -2.3431,2.34446 7.5545,7.55032 7.5503,-7.55445 z" style="fill:#00FFB7;fill-opacity:1" /><path id="BTN_EXTRA" style="fill:#0009FF;fill-opacity:1" d="m 1208.6846,342.40246 1.578,36.78747 2.8601,7.29831 6.0162,-0.29587 -2.1698,-50.49647 -6.0161,0.19726 z" /><path style="fill:#0006FF;fill-opacity:1" id="BTN_SIDE" d="m 1211.0516,394.77282 1.578,36.78747 2.8601,7.29831 6.0162,-0.29587 -2.1698,-50.49647 -6.0161,0.19726 z" /></g><g id="unused" style="display:inline"><path id="KEY_TOPMOUSE2" style="display:none;fill:#000000;fill-opacity:1;stroke-width:5.66929;stroke-linecap:round;stroke-linejoin:round" d="m 1289.1972,358.12484 0.255,24.67339 c 0,0 -0.092,5.85978 6.2204,5.46528 6.3121,-0.3945 5.6217,-5.62168 5.6217,-5.62168 l -0.8877,-24.7551 z" /><path style="display:none;fill:#000000;fill-opacity:1;stroke-width:5.66929;stroke-linecap:round;stroke-linejoin:round" d="m 1288.9154,355.02216 -0.1634,-22.30227 c 0,0 -0.9984,-6.9756 5.3137,-6.5811 6.3121,0.3945 6.2424,5.73021 6.2424,5.73021 l 0.099,22.88121 z" id="KEY_TOPMOUSE1" /><path id="KEY_LEFTMOUSE" style="display:none;fill:#000000;fill-opacity:1;stroke-width:5.66929;stroke-linecap:round;stroke-linejoin:round" d="m 1206.5945,351.25238 -4.4746,0.16016 -2.1993,8.31445 1.9317,53.85352 3.0683,8.91405 4.2247,-0.15234 z" /><path style="display:inline;fill:#000000;fill-opacity:1;stroke-width:8.05129;stroke-linecap:round;stroke-linejoin:round" d="m 617.15315,457.57128 h 70.0176 v 34.71632 h -70.0176 z" id="KEY_FN" /></g></svg>